<svg xmlns="http://www.w3.org/2000/svg" viewBox="0 0 106.01385498046875 49.134765625" fill="none"><path d="M27.358808471536076 36.845925992647054L22.18969762487075 37.403434147662V20.220558865808822L14.264924992934283 20.601136132970474V38.25578554170497L8.678344057574105 38.857944237994026V20.867692381046073L0 21.284763358757466V45.81220368034812L34.60441893181296 41.41300286520565V19.62206700168026L27.357561249712777 19.970216501436123L27.358808471536076 36.845925992647054Z" fill="#CF2C02"/><path d="M45.937923640136724 19.079450675235524L37.7968079107307 41.010649105009186L44.663512381089156 40.137593828699444L45.69421649586397 36.553577197265625L52.87871308679917 35.734152459357766L53.87150165814568 38.966951425350416L60.1128491063017 38.173219457002524L52.835559211713004 18.748537781077665L45.937923640136724 19.079450675235524ZM47.099586046358 31.89495424287684L49.355061991613056 24.26163240660903L51.595571274988515 31.457678271627987L47.099586046358 31.89495424287684Z" fill="#CF2C02"/><path d="M76.12243787454044 17.63037847205308L62.29498840834674 18.294249704159007V37.896835100959336L67.86932162540211 37.187415327866496V22.732463617934286L76.12343565199909 22.175030296228748L76.12243787454044 17.63037847205308Z" fill="#CF2C02"/><path d="M87.00295161664177 34.7560811055262L91.74987787612018 34.15242574304917L86.21795020105698 17.14698023777861L81.01204631060432 17.39732260215131L74.91412937212776 36.294653946748625L80.0541799503102 35.640860266974954L80.82845525821462 32.54949625574449L86.2508768571921 31.93087423138787L87.00295161664177 34.7560811055262ZM81.88460269818474 28.522715877039293L83.5848154877068 21.91663087887753L85.27729550192441 28.19344931568819L81.88460269818474 28.522715877039293Z" fill="#CF2C02"/><path d="M102.20209564410041 23.793126000904756V32.82363561250574L105.91682112261604 32.3514374302045V16.19824354123104L102.22304897073185 16.375623428940717L97.21096335161994 25.932735038775277V16.61733501829619L93.15998686954275 16.811926567167394V33.973075244858684L97.21420612836053 33.45722429874196L102.20209564410041 23.793126000904756Z" fill="#CF2C02"/><path d="M99.07356442253563 18.224255615435432L103.82448179184858 6.7536562842945775L100.66801280144188 6.764806447394876L101.31906259320426 0L96.4785946969784 11.33480181901999L99.57694315041935 11.257773399213006L99.07356442253563 18.224255615435432Z" fill="#CF2C02"/></svg>
